<svg width="20" height="20" viewBox="0 0 20 20" fill="none" xmlns="http://www.w3.org/2000/svg">
<path d="M11.4307 1.50977C11.5268 1.52892 11.6161 1.57617 11.6865 1.64648L17.0195 6.97949C17.1132 7.07318 17.1659 7.20052 17.166 7.33301V17C17.166 17.8284 16.4944 18.5 15.666 18.5H4.33301C3.50473 18.4998 2.83301 17.8283 2.83301 17V3C2.83301 2.17168 3.50473 1.50018 4.33301 1.5H11.333L11.4307 1.50977ZM4.33301 2.5C4.05702 2.50018 3.83301 2.72397 3.83301 3V17C3.83301 17.276 4.05702 17.4998 4.33301 17.5H15.666C15.9422 17.5 16.166 17.2761 16.166 17V7.83301H11.333C11.057 7.83283 10.833 7.60904 10.833 7.33301V2.5H4.33301ZM11.833 6.83301H15.459L11.833 3.20703V6.83301Z" fill="#656565"/>
</svg>
