<svg width="20" height="20" viewBox="0 0 20 20" fill="none" xmlns="http://www.w3.org/2000/svg">
<path d="M9.57881 0.43871C9.8122 0.209128 10.1871 0.209336 10.4206 0.43871L19.4206 9.29223L19.4978 9.38598C19.6533 9.61759 19.6307 9.93419 19.4274 10.1409C19.2241 10.3474 18.9076 10.3757 18.6735 10.2239L18.5788 10.1477L17.1667 8.75805V16.6662C17.1667 16.9423 16.9427 17.1661 16.6667 17.1662H3.33369C3.05755 17.1662 2.83369 16.9424 2.83369 16.6662V8.75707L1.42061 10.1477C1.18442 10.38 0.804347 10.3769 0.571974 10.1409C0.339974 9.90467 0.342888 9.52452 0.57881 9.29223L9.57881 0.43871ZM3.83369 7.77269V16.1662H8.1667V11.3332C8.16678 11.0572 8.39062 10.8333 8.6667 10.8332H12.6667C12.9428 10.8332 13.1666 11.0572 13.1667 11.3332V16.1662H16.1667V7.77367L9.99971 1.70727L3.83369 7.77269ZM9.1667 16.1662H12.1667V11.8332H9.1667V16.1662Z" fill="#656565"/>
</svg>
