<svg width="20" height="20" viewBox="0 0 20 20" fill="none" xmlns="http://www.w3.org/2000/svg">
<path d="M2.00021 9.4998C2.27635 9.4998 2.50021 9.72366 2.50021 9.9998C2.50021 12.6691 4.66399 14.8326 7.33321 14.8328H17.4602L15.6467 13.0203L15.5822 12.9412C15.4544 12.7472 15.4761 12.484 15.6467 12.3133C15.8176 12.1424 16.0815 12.1205 16.2756 12.2488L16.3537 12.3133L19.0207 14.9793C19.1144 15.073 19.1671 15.2003 19.1672 15.3328C19.1672 15.4653 19.1143 15.5926 19.0207 15.6863L16.3537 18.3533C16.1585 18.5486 15.842 18.5486 15.6467 18.3533C15.4514 18.1581 15.4514 17.8415 15.6467 17.6463L17.4602 15.8328H7.33321C4.1117 15.8326 1.50021 13.2214 1.50021 9.9998C1.50021 9.72366 1.72406 9.4998 2.00021 9.4998ZM3.64669 1.64628C3.84191 1.45124 4.1585 1.45124 4.35372 1.64628C4.54877 1.8415 4.54877 2.15809 4.35372 2.35331L2.54025 4.16679H12.6662C15.8879 4.16679 18.5002 6.77814 18.5002 9.9998C18.5002 10.2758 18.2762 10.4996 18.0002 10.4998C17.7242 10.4996 17.5002 10.2758 17.5002 9.9998C17.5002 7.33042 15.3356 5.16679 12.6662 5.16679H2.54025L4.35372 6.97929L4.4172 7.05839C4.54517 7.25233 4.52424 7.51549 4.35372 7.68632C4.18288 7.85701 3.91883 7.87884 3.72482 7.75078L3.64669 7.68632L0.979699 5.02031C0.784708 4.82514 0.784816 4.50851 0.979699 4.31328L3.64669 1.64628Z" fill="#656565"/>
</svg>
