<svg width="20" height="20" viewBox="0 0 20 20" fill="none" xmlns="http://www.w3.org/2000/svg">
<path d="M10.0005 10.7256C12.1436 10.7257 13.9494 11.2788 15.2173 12.5283C16.4865 13.7794 17.1421 15.6541 17.1421 18.1338C17.1418 18.3958 16.9285 18.6083 16.6665 18.6084C16.4045 18.6083 16.1922 18.3958 16.1919 18.1338C16.1919 15.814 15.5807 14.2207 14.5503 13.2051C13.5184 12.1882 11.99 11.6749 10.0005 11.6748C8.01081 11.6748 6.48262 12.1883 5.45068 13.2051C4.42014 14.2207 3.80811 15.8138 3.80811 18.1338C3.80782 18.3958 3.59554 18.6083 3.3335 18.6084C3.07134 18.6084 2.85917 18.3959 2.85889 18.1338C2.85889 15.6539 3.51428 13.7794 4.78369 12.5283C6.05168 11.2789 7.85721 10.7256 10.0005 10.7256ZM10.0005 1.3252C12.5821 1.32553 14.6752 3.41836 14.6753 6C14.6752 8.58164 12.5821 10.6745 10.0005 10.6748C7.41862 10.6748 5.32579 8.58184 5.32568 6C5.32579 3.41816 7.41862 1.3252 10.0005 1.3252ZM10.0005 2.27441C7.94329 2.27441 6.27501 3.94283 6.2749 6C6.27501 8.05717 7.94329 9.72461 10.0005 9.72461C12.0574 9.72428 13.725 8.05697 13.7251 6C13.725 3.94303 12.0574 2.27475 10.0005 2.27441Z" fill="#656565"/>
</svg>
