<svg xmlns="http://www.w3.org/2000/svg" width="315.89pt" height="91.96pt" viewBox="0 0 315.89 91.96"><path fill="#AB2023" d="M229.773 11.18c-8.613 6.484-13.851 14.984-15.808 25.41l22.316 42.187c1.836 3.442 3.239 5.621 4.274 6.63 0 0 1.422 1.605 4.761 3.55 5.77 1.77 12.075 2.64 19 2.64 13.868 0 25.368-3.53 34.54-10.593 11.062-8.52 16.601-19.938 16.601-34.192 0-15.242-5.539-27.12-16.602-35.632C289.598 4.094 278.043.57 264.172.57c-13.73.164-25.188 3.684-34.399 10.61m12.504 55.156c-5.261-5.379-7.882-12.145-7.882-20.25 0-8.16 2.62-14.93 7.882-20.324 5.66-5.778 12.993-8.66 21.965-8.66 8.985.085 16.344 2.976 22.055 8.66 5.234 5.23 7.851 12.129 7.851 20.699 0 7.918-2.617 14.516-7.851 19.875-5.68 5.844-13 8.742-21.98 8.742-9.024 0-16.38-2.898-22.04-8.742"/><path fill="#AB2023" d="M165.074 2.453v2.168c2.903 1.191 4.371 2.844 4.371 4.973 0 .886-.972 3.824-1.27 4.883 0 0 10.821 17.644-4.491 32.949-5.239 5.242-14.375 5.93-14.375 5.93l-13.555 27.156c-1.309 2.617-2.406 4.343-3.383 5.234-.965.89-2.418 1.488-4.402 1.797v2.176h32.168v-2.176c-3.317-.66-4.992-2.258-4.992-4.738 0-1.348.53-3.121 1.636-5.383l4.512-9.531h40.117l4.817 8.957c1.324 2.359 1.972 4.32 1.972 5.957 0 2.59-1.707 4.164-5.09 4.738v2.176h35.649v-2.176c-2.149-.445-3.723-1.121-4.766-2.137-1.023-1.008-2.445-3.187-4.265-6.629L196.664 16.23c-1.32-2.492-1.98-4.609-1.98-6.328 0-2.367 1.46-4.129 4.332-5.28V2.452Zm15.781 25.188 14.278 28.011h-27.86Zm0 0"/><path fill="#AB2023" d="M14.3 7.426C6.099 12.457 1.989 19.78 1.989 29.312c0 4.282.953 8.2 2.828 11.793 1.836 3.579 4.457 6.395 7.79 8.512 2.593 1.598 5.628 2.813 9.113 3.656 3.5.832 8.527 1.489 15.097 2.012l12.266 1.024c6.496.57 11.008 1.273 13.477 2.09 3.761 1.253 5.609 3.464 5.609 6.64 0 3.965-2.688 6.816-8.078 8.582-4.387 1.457-9.32 2.184-14.84 2.184-6.223 0-12.531-.848-18.938-2.516-6.417-1.71-10.914-3.7-13.5-5.973-1.03-.953-1.554-2.093-1.554-3.421v-.63l-1.953-.785L.332 83.84l1.957.746c.887-1.238 1.844-1.863 2.871-1.863.574 0 1.274.183 2.094.547 12.297 5.543 25.004 8.328 38.148 8.328 13.04 0 23.399-2.457 31.051-7.418 7.98-5.13 11.984-12.133 11.984-21.024 0-4.894-1.292-9.27-3.808-13.18a24.051 24.051 0 0 0-7.707-7.484c-5.633-3.32-13.82-5.379-24.606-6.21l-12.308-.927c-7.75-.64-12.98-1.468-15.672-2.554-2.695-1.067-4.066-2.871-4.066-5.399 0-3.87 2.8-6.8 8.425-8.832 3.895-1.383 8.383-2.086 13.395-2.086 5.941 0 11.793.828 17.555 2.582 5.761 1.684 10.148 3.88 13.101 6.516 1.086 1 1.629 2.348 1.629 4.063l1.871 1.003 10.676-20.394 3.945 2.11-7.86 15.144v15.207a23.592 23.592 0 0 1 7.411 7.262c2.523 3.91 3.824 8.285 3.824 13.18 0 8.698-3.875 15.546-11.52 20.702 0 0-3.304 2.223-4.702 2.778v3.082h30.835v-2.176c-1.847-.586-3.16-1.305-3.886-2.148-.707-.864-1.11-2.086-1.11-3.684V53.773h26.895c12.195 0 21.27-2.117 27.187-6.351 5.918-4.203 8.871-10.664 8.871-19.336 0-4.496-.921-8.566-2.792-12.2-1.875-3.613-4.48-6.41-7.81-8.398-5.726-3.343-14.194-5.031-25.456-5.031H78.02v2.164s4.988.797 4.796 3.883v2.254a2.758 2.758 0 0 1-1.109.262c-.832 0-2.324-.54-4.414-1.485-7.207-3.332-13.371-5.633-18.52-6.992C53.593 1.243 48.031.57 42.063.57 31.038.57 21.78 2.867 14.3 7.426m89.558 10.812h25.637c5.465 0 9.246.504 11.328 1.543 3.102 1.504 4.68 4.278 4.68 8.305 0 4.066-1.578 6.816-4.68 8.34-2.09 1.035-5.914 1.562-11.328 1.562H103.86Zm0 0"/></svg>