<svg xmlns="http://www.w3.org/2000/svg" width="191.32912mm" height="191.32912mm" viewBox="0 0 191.32912 191.32912"><g style="stroke-width:.345751"><path d="M515.472 349.468c0 51.784-41.975 93.759-93.759 93.759s-93.759-41.975-93.759-93.759c0-51.783 41.975-93.759 93.759-93.759s93.759 41.976 93.759 93.759z" style="fill:#005295;stroke:none;stroke-width:.345751" transform="matrix(1.02032 0 0 1.02032 -334.62 -260.906)"/><g style="stroke-width:.345751"><path d="M357.724 285.479c-16.378 16.377-26.505 38.995-26.505 63.994 0 24.989 10.127 47.612 26.505 63.984 16.377 16.378 38.994 26.511 63.989 26.511 24.995 0 47.616-10.133 63.989-26.511 16.373-16.372 26.505-38.995 26.505-63.984 0-24.999-10.132-47.617-26.505-63.994-16.373-16.378-38.994-26.511-63.989-26.511-24.995 0-47.612 10.133-63.989 26.511m-27.749 63.994c0-50.669 41.073-91.743 91.738-91.743 50.669 0 91.737 41.074 91.737 91.743 0 50.659-41.068 91.733-91.737 91.733-50.665 0-91.738-41.074-91.738-91.733" style="fill:#fff;stroke:none;stroke-width:.345751" transform="matrix(1.02032 0 0 1.02032 -334.62 -260.906)"/><path d="M374.643 301.995c-12.109 12.109-19.59 28.831-19.59 47.303 0 18.471 7.481 35.189 19.59 47.297 12.108 12.102 28.826 19.59 47.301 19.59 18.472 0 35.19-7.488 47.297-19.59 12.109-12.108 19.596-28.826 19.596-47.297 0-18.472-7.487-35.194-19.596-47.303-12.107-12.102-28.825-19.585-47.297-19.585-18.475 0-35.193 7.483-47.301 19.585m-20.838 47.303c0-37.634 30.506-68.13 68.139-68.13 37.623 0 68.136 30.496 68.136 68.13 0 37.628-30.513 68.124-68.136 68.13-37.633-.006-68.139-30.502-68.139-68.13M339.676 332.971l.185-1.196 8.942 1.413-.207 1.289-6.955-1.103 3.021 3.295-.037.237-3.898 2.233 6.957 1.103-.207 1.279-8.942-1.418.195-1.212 4.147-2.387zM344.425 320.327c-.361.975-.351 1.883.02 2.734.377.85 1.036 1.448 1.981 1.799.912.34 1.794.305 2.634-.098.84-.403 1.434-1.072 1.78-2.016.355-.949.335-1.851-.047-2.713-.387-.861-1.041-1.464-1.965-1.809a3.232 3.232 0 0 0-2.625.113c-.846.407-1.443 1.067-1.778 1.99m-1.177-.376c.49-1.315 1.305-2.254 2.461-2.815 1.154-.568 2.356-.614 3.609-.15 1.248.464 2.125 1.284 2.62 2.47.49 1.181.49 2.444-.005 3.779-.475 1.28-1.279 2.192-2.413 2.744-1.14.552-2.321.593-3.559.139-1.269-.474-2.156-1.289-2.676-2.454-.512-1.166-.521-2.403-.037-3.713M352.201 302.568l.645-1.052 7.704 4.754-.584.949-9.111 1.486 5.93 3.661-.639 1.036-7.699-4.75.551-.892 9.19-1.506zM369.485 290.584l-3.299-1.408 1.243 3.326zm-4.975-2.563.665-.619 9.169 3.903-.97.903-2.707-1.144-2.831 2.629.995 2.739-.975.902zM379.63 276.687l1.019-.65 4.864 7.632-1.098.701-3.78-5.941-.47 4.44-.201.135-4.254-1.444 3.78 5.945-1.098.697-4.858-7.637 1.037-.661 4.532 1.526zM387.282 272.762l1.186-.531 3.691 8.261-1.175.526zM395.192 269.591l4.904-1.511.34 1.098-3.665 1.13.814 2.64 3.537-1.093.346 1.109-3.543 1.093.825 2.681 3.785-1.16.341 1.098-5.018 1.552zM433.491 265.94l1.206.124-.948 9.008-1.3-.139.742-7.002-3.135 3.181-.237-.025-2.429-3.77-.743 6.998-1.289-.135.954-8.998 1.218.129 2.604 4.011zM446.052 269.817c-.994-.293-1.903-.226-2.727.202-.826.428-1.383 1.124-1.672 2.089-.278.933-.195 1.81.258 2.619.455.815 1.166 1.362 2.131 1.655.963.289 1.865.212 2.706-.221.836-.444 1.393-1.135 1.677-2.078.273-.918.185-1.785-.274-2.61-.459-.82-1.16-1.371-2.099-1.656m.3-1.19c1.34.402 2.325 1.16 2.965 2.274.633 1.113.762 2.31.381 3.589-.387 1.279-1.15 2.207-2.3 2.769-1.155.572-2.413.649-3.78.237-1.304-.387-2.269-1.135-2.888-2.233-.618-1.103-.743-2.279-.36-3.542.387-1.295 1.151-2.233 2.279-2.821 1.129-.583 2.368-.681 3.703-.273M464.008 276.316l1.089.577-4.23 7.998-.984-.521-2.095-8.988-3.253 6.162-1.083-.567 4.234-8.004.928.491 2.11 9.065zM476.708 292.389l1.166-3.399-3.223 1.48zm2.197-5.157.66.619-3.222 9.431-.969-.903.943-2.789-2.832-2.625-2.65 1.197-.98-.913zM491.132 301.237l.727.97-7.245 5.43-.779-1.047 5.637-4.223-4.471-.129-.139-.191 1.108-4.347-5.636 4.223-.774-1.036 7.241-5.43.737.985-1.17 4.63zM496.778 313.17c-.453-.934-1.113-1.557-1.995-1.877-.866-.32-1.759-.258-2.661.181-.882.427-1.465 1.082-1.758 1.969-.289.882-.222 1.774.216 2.682.443.902 1.109 1.516 1.995 1.841.893.32 1.779.267 2.667-.165.856-.418 1.439-1.073 1.737-1.965.295-.887.227-1.784-.201-2.666m1.084-.583c.608 1.259.716 2.502.324 3.718-.392 1.222-1.185 2.13-2.387 2.713-1.201.577-2.403.639-3.599.175-1.197-.469-2.104-1.341-2.728-2.625-.593-1.232-.697-2.444-.305-3.641.393-1.196 1.182-2.088 2.367-2.66 1.217-.588 2.424-.665 3.62-.227 1.197.438 2.099 1.289 2.708 2.547M503.843 329.584l.341 1.253-4.956 1.356c-.67.181-1.192.268-1.557.268a3.776 3.776 0 0 1-.955-.129 2.66 2.66 0 0 1-.752-.366c-.789-.526-1.33-1.351-1.635-2.465-.309-1.139-.268-2.135.139-2.98.13-.258.285-.49.471-.702.189-.201.437-.397.736-.582.309-.181.809-.366 1.511-.563l4.945-1.351.341 1.259-4.95 1.351c-.821.227-1.367.474-1.64.747-.269.279-.443.635-.537 1.068-.087.444-.062.918.083 1.439.201.742.556 1.294 1.072 1.65.278.19.567.304.882.335.314.031.814-.052 1.506-.237zM504.446 339.443l-.035-.386-2.842.293.047.486c.067.654.17 1.093.304 1.324.134.233.325.407.561.521.243.114.506.155.79.124.289-.026.541-.134.753-.304a1.23 1.23 0 0 0 .422-.686c.067-.284.067-.738 0-1.372m-8.08-.871 9.008-.913.228 2.254c.098.912-.057 1.66-.455 2.237-.396.583-.984.914-1.748.991-.525.051-.989-.036-1.402-.258-.407-.217-.732-.567-.969-1.037a4.1 4.1 0 0 1-.691.923c-.299.304-.825.748-1.588 1.331-.48.366-.841.655-1.078.871l-.598.547-.155-1.537.558-.454c.014-.015.05-.041.097-.087l.335-.289.614-.464.66-.506a6.77 6.77 0 0 0 .803-.82c.198-.242.336-.459.414-.644.082-.191.092-.495.057-.918l-.037-.335-3.919.397zM501.739 376.112l-.345 1.161-8.674-2.579.372-1.252 6.745 2.01-2.553-3.666.067-.227 4.151-1.701-6.749-2.007.375-1.247 8.674 2.583-.351 1.176-4.424 1.825zM495.355 388.025c.485-.914.599-1.821.341-2.713-.263-.892-.836-1.573-1.722-2.047-.867-.459-1.739-.542-2.625-.258-.882.289-1.563.877-2.038 1.764-.474.897-.578 1.794-.308 2.697.268.912.834 1.593 1.707 2.057.846.449 1.722.526 2.609.237.897-.294 1.578-.876 2.036-1.737m1.115.53c-.655 1.233-1.594 2.053-2.811 2.46-1.223.413-2.419.3-3.594-.324-1.181-.63-1.939-1.558-2.269-2.801-.336-1.237-.165-2.485.505-3.749.634-1.206 1.552-2.006 2.754-2.398 1.196-.391 2.381-.278 3.543.336 1.196.639 1.969 1.562 2.32 2.784.356 1.227.206 2.455-.448 3.692M485.295 404.603l-.778.954-7.008-5.723.705-.867 9.226-.273-5.4-4.409.775-.949 7.007 5.729-.665.809-9.303.284zM469.655 417.031l1.092-.774-1.634-2.31-1.155.815c-.428.304-.691.639-.783 1.006-.088.371 0 .742.267 1.118.532.764 1.274.805 2.213.145m-2.398-7.988 5.219 7.41-2.347 1.655c-.702.5-1.402.702-2.093.619-.686-.088-1.259-.453-1.707-1.093-.305-.433-.471-.892-.49-1.377-.011-.48.113-.928.376-1.346.273-.407.759-.861 1.454-1.356l.789-.551-2.264-3.213zM456.474 420.089l2.785 2.264-.274-3.538zm4.079 3.836-.81.413-7.74-6.281 1.186-.604 2.285 1.846 3.449-1.747-.205-2.903 1.185-.599zM447.929 427.974l.371-.114-.85-2.734-.469.15c-.625.191-1.037.381-1.238.562a1.198 1.198 0 0 0-.392.655c-.067.252-.057.522.031.799.088.269.237.495.443.671.217.175.465.269.758.278.289.01.738-.082 1.346-.267m-.752-8.092 2.686 8.639-2.166.674c-.871.273-1.635.273-2.279 0-.649-.273-1.093-.778-1.32-1.52-.155-.506-.165-.976-.031-1.418.139-.449.412-.831.83-1.161a4.153 4.153 0 0 1-1.041-.49c-.361-.232-.903-.665-1.62-1.294a17.049 17.049 0 0 0-1.073-.882l-.648-.48 1.474-.454.551.454c.021.016.052.041.109.078l.345.268.577.51.63.547c.36.273.686.484.964.629.274.144.516.237.717.273.201.041.5-.005.902-.129l.325-.103-1.165-3.754zM437.013 431.857l-1.28.216-1.525-8.916 1.277-.227zM426.091 427.814l1.015.545c.64.347 1.099.692 1.377 1.042.279.356.434.764.453 1.239.038.711-.179 1.303-.648 1.773-.47.469-1.098.727-1.892.769a3.626 3.626 0 0 1-2.11-.532l-.078-1.469c.687.593 1.402.871 2.15.835.424-.027.764-.14 1.032-.351.263-.211.382-.464.367-.768a1.117 1.117 0 0 0-.34-.747c-.218-.227-.547-.459-1.006-.692l-1.016-.536c-1.135-.599-1.734-1.413-1.78-2.429-.041-.722.171-1.325.635-1.804.459-.481 1.077-.738 1.856-.78a3.958 3.958 0 0 1 2.481.702l.082 1.64c-.742-.851-1.578-1.248-2.49-1.201-.407.019-.743.148-.996.387a1.089 1.089 0 0 0-.361.876c.031.546.449 1.046 1.269 1.501M406.949 426.668l1.187.232.556-2.815-1.248-.242c-.701-.139-1.175-.181-1.449-.119a1.3 1.3 0 0 0-.695.386 1.381 1.381 0 0 0-.377.692c-.047.273-.022.536.098.789.109.258.304.469.572.639.273.166.722.314 1.356.438m-.66 3.821 1.099.217.525-2.672-.846-.17c-.674-.133-1.185-.097-1.52.104-.341.206-.547.511-.63.918-.164.855.289 1.387 1.372 1.603m.897-7.874 3.003.593-1.754 8.875-2.327-.453c-.732-.15-1.289-.361-1.654-.641a2.148 2.148 0 0 1-.784-.994 2.291 2.291 0 0 1-.088-1.263c.175-.872.747-1.409 1.728-1.61-.625-.253-1.088-.619-1.387-1.108a2.077 2.077 0 0 1-.289-1.583c.092-.459.289-.836.593-1.151.298-.308.696-.531 1.196-.665.495-.139 1.083-.139 1.763 0M393.077 422.43l.213 3.579 2.418-2.59zm-.076 5.595-.852-.315-.592-9.952 1.237.469.185 2.934 3.616 1.357 2.006-2.115 1.242.475zM381.207 417.237l-2.62-1.537 1.935-3.31c1.206.144 2.284.495 3.233 1.052 1.294.758 2.103 1.737 2.434 2.949.334 1.207.174 2.362-.469 3.466-.692 1.17-1.656 1.908-2.91 2.211-1.257.31-2.49.104-3.697-.603a5.79 5.79 0 0 1-1.171-.876c-.335-.32-.736-.789-1.19-1.398l.67-1.139c.614 1.083 1.382 1.898 2.295 2.433.856.501 1.748.63 2.671.393.923-.238 1.634-.784 2.13-1.63.52-.887.649-1.784.397-2.687-.258-.902-.846-1.624-1.764-2.165-.449-.264-1.042-.475-1.784-.635l-.13-.025-.953 1.624 1.506.881zM365.495 411.25l-.985-.846 3.346-3.899c.454-.525.83-.892 1.14-1.092.304-.206.599-.346.86-.428a2.76 2.76 0 0 1 .832-.124c.944 0 1.856.376 2.733 1.134.891.764 1.412 1.614 1.557 2.543.037.283.037.567 0 .84a3.444 3.444 0 0 1-.284.897c-.15.32-.464.759-.938 1.315l-3.342 3.889-.985-.846 3.347-3.899c.551-.645.866-1.16.934-1.542.071-.375.019-.773-.155-1.186-.17-.407-.459-.788-.866-1.139-.584-.506-1.192-.758-1.816-.768a1.795 1.795 0 0 0-.917.216c-.279.155-.65.501-1.115 1.036zM359.606 405.299l-3.316-3.913.876-.743 2.486 2.924 2.099-1.79-2.398-2.826.886-.747 2.399 2.825 2.144-1.82-2.562-3.017.877-.748 3.403 4.008zM352.727 396.641l-3.987-6.42.981-.609 1.665 2.677 6.724-4.167.681 1.109-6.719 4.167 1.635 2.64zM346.101 385.11l-2.919-6.971 1.056-.448 1.223 2.908 7.291-3.058.511 1.201-7.296 3.058 1.201 2.862zM341.258 371.998 340 367.021l1.119-.283.939 3.718 2.676-.676-.908-3.589 1.125-.284.906 3.589 2.729-.685-.97-3.837 1.119-.283 1.285 5.094z" style="fill:#fff;stroke:none;stroke-width:.345751" transform="matrix(1.02032 0 0 1.02032 -334.62 -260.906)"/><path d="M394.356 349.355c4.24 0 7.004-2.001 7.004-6.189 0-3.547-1.847-6.914-7.096-6.914h-16.537v13.103zm-.83-16.291c7.049 0 11.381 3.641 11.381 10.149 0 7.096-4.791 9.596-10.004 9.596h-17.176v14.975h-3.554v-34.72z" style="fill:#fff;stroke:none;stroke-width:.345751" transform="matrix(1.02032 0 0 1.02032 -334.62 -260.906)"/><path d="M377.304 349.777v-13.949h16.96c2.712-.005 4.631.882 5.837 2.27 1.202 1.386 1.681 3.222 1.681 5.068.005 2.182-.737 3.878-2.067 4.986-1.32 1.104-3.177 1.625-5.359 1.625v-.845c2.053 0 3.704-.485 4.823-1.424 1.113-.943 1.753-2.341 1.757-4.342 0-1.706-.443-3.326-1.474-4.512-1.031-1.181-2.661-1.975-5.198-1.98h-16.12v12.258h16.212v.845zm-3.553 18.43v-35.565h19.775v.845h-18.929v33.88h2.707v-14.975h17.599c2.542 0 4.946-.614 6.694-2.048 1.742-1.428 2.887-3.671 2.887-7.131 0-3.167-1.036-5.559-2.903-7.193-1.861-1.645-4.6-2.533-8.055-2.533v-.845c3.594 0 6.549.933 8.612 2.738 2.068 1.81 3.192 4.486 3.187 7.833.005 3.641-1.243 6.193-3.197 7.787-1.955 1.598-4.554 2.233-7.225 2.233h-16.759v14.974zM463.374 364.51c5.115 0 8.617-2.047 8.617-6.601 0-4.233-3.09-6.182-8.802-6.182h-16.405v12.783zm-1.058-16.337c4.605 0 7.921-1.412 7.921-5.327 0-4.367-2.945-6.461-8.384-6.461h-15.069v11.788zm.873-15.109c6.404 0 10.642 4.048 10.642 9.421 0 3.043-1.057 5.008-3.455 7.05 3.595 2.006 5.209 4.234 5.209 8.421 0 5.229-3.362 9.828-11.335 9.828h-21.008v-34.72z" style="fill:#fff;stroke:none;stroke-width:.345751" transform="matrix(1.02032 0 0 1.02032 -334.62 -260.906)"/><path d="M446.367 348.591v-12.628h15.486c2.769.004 4.955.53 6.486 1.681 1.532 1.145 2.326 2.934 2.32 5.202.016 2.079-.922 3.6-2.437 4.492-1.512.902-3.559 1.253-5.906 1.253v-.84c2.259 0 4.172-.356 5.472-1.135 1.295-.789 2.016-1.933 2.026-3.77-.004-2.093-.68-3.542-1.985-4.532-1.305-.99-3.306-1.511-5.976-1.511h-14.646v10.948h15.109v.84zm0 16.336v-13.629h16.822c2.902.005 5.181.49 6.78 1.583 1.604 1.089 2.45 2.811 2.439 5.028.011 2.383-.944 4.203-2.563 5.347-1.623 1.156-3.858 1.671-6.471 1.671v-.84c2.5 0 4.574-.505 5.977-1.516 1.412-1.011 2.211-2.491 2.216-4.662-.009-2.016-.707-3.383-2.073-4.331-1.372-.949-3.495-1.434-6.305-1.434h-15.982v11.943h16.167v.84zm17.883 3.28h-21.431v-35.565h20.37v.845h-19.53v33.88h20.591c3.903-.006 6.616-1.119 8.359-2.831 1.748-1.718 2.548-4.053 2.548-6.58-.021-4.074-1.465-6.059-4.987-8.05l-.526-.299.464-.392c2.331-2.016 3.286-3.785 3.301-6.73-.012-5.13-3.992-8.977-10.22-8.998v-.845c3.289 0 6.058 1.042 8.002 2.804 1.949 1.765 3.064 4.24 3.064 7.039.015 2.951-1.006 5.018-3.156 6.978 3.32 1.959 4.929 4.398 4.908 8.493 0 2.702-.876 5.285-2.811 7.178-1.927 1.897-4.882 3.073-8.935 3.073zM411.94 376.293a2.394 2.394 0 0 0-.707-.113c-1.458.02-2.613 1.34-3.629 2.887-1.016 1.558-1.882 3.393-2.635 4.543-1.701 2.635-3.439 4.837-4.909 7.658-.938 1.547-1.016 2.171-2.037 3.346l-.073.088a.134.134 0 0 0-.03.104c.005.04.026.072.058.097l.101.057c.13.083.274.124.424.124.799-.031 1.603-.929 2.49-2.022.871-1.103 1.77-2.444 2.49-3.439.588-.82 1.517-1.985 2.311-3.151.794-1.16 1.465-2.305 1.542-3.146l.005-.02v-.005c-.005-.052-.005-.114-.031-.176a.265.265 0 0 0-.243-.18H407.037c-.149.016-.227.108-.273.144-.216.197-.542.532-1.068.681h-.006l-.019.01-.006.005c-.031.011-.057.021-.082.027a.256.256 0 0 1 .031-.073c.649-1.171 1.381-2.568 2.196-3.666.81-1.099 1.702-1.857 2.605-1.852h.01c.16 0 .314.021.484.068h.006l.02.005c.16.03.31.046.444.046h.02c.697.006.991-.443 1.099-.696l.005-.005.005-.006c.046-.133.067-.262.067-.391v-.006c0-.386-.191-.824-.635-.943m-1.836-2.217c.228.077.486.097.739.097.381 0 .763-.051.855-.046v-.005h.016c.191-.02.273-.139.371-.232.361-.407.98-1.336 1.521-2.177.268-.422.516-.814.697-1.103.093-.154.165-.268.216-.35.021-.042.046-.072.057-.099.01-.01.01-.02.021-.025v-.01c4.996-8.318 5.986-25.413 6.105-27.537.077-1.434.104-6.467.108-9.612.057-.645.087-1.212.087-1.671 0-.423-.019-.758-.091-1.005a.138.138 0 0 0-.145-.099l-.196.031c-.068.011-.118.062-.118.134v2.579c-.387 4.331-1.919 12.381-2.358 15.594-.273 2.001-2.154 7.879-4.047 13.356a351.877 351.877 0 0 1-2.656 7.41 101.59 101.59 0 0 1-.965 2.516c-.252.64-.437 1.068-.506 1.171-.107.18-.169.345-.169.515 0 .305.232.495.458.568m17.245 11.669v-.005c-.175-.155-2.712-2.47-6.713-2.47h-.012c-1.531 0-3.269.34-5.166 1.274a.329.329 0 0 0-.17.283c0 .026.004.057.016.088.05.149.179.222.299.222h.031a.126.126 0 0 0 .061-.016 22.003 22.003 0 0 1 3.599-.304h.011c1.944 0 3.738.211 5.218 1.253l.119.078c.037.02.459.273 1.377.273.087 0 .18-.006.279-.011.324-.01.675-.02.969-.149a.31.31 0 0 0 .175-.196l.005-.01.005-.021c.005-.031.005-.047.005-.057a.31.31 0 0 0-.098-.222zm-1.268-20.828c-1.031-2.862-1.542-5.956-2.461-8.085a.304.304 0 0 0-.277-.191.328.328 0 0 0-.321.309c0 .021.006.052.016.083.954 3.919 1.31 8.323 2.6 11.999l.004.011a.326.326 0 0 0 .166.175l.056-.124-.053.124.012.011h.046l.015.004h.052c.015 0 .083 0 .145-.036.645-.309.917-.86.917-1.428v-.011c-.01-.938-.608-1.943-.917-2.841m10.797 27.903h-.004.004c-1.242-6.709-8.137-12.381-15.682-12.391-2.226 0-4.506.499-6.708 1.609a.315.315 0 0 0-.171.273c.006.036.012.072.022.113.057.119.16.196.283.202h.01c.026 0 .042-.006.062-.006h.016v-.005a18.479 18.479 0 0 1 4.996-.712c7.334 0 12.805 4.827 14.568 11.066l.006.006a.3.3 0 0 0 .196.201c.309.108.798.217 1.283.217.351 0 .718-.057 1.001-.269a.36.36 0 0 0 .124-.237V392.836zm9.535-.959-.123.067.117-.072c-.189-.346-.381-.65-.504-.784a5.46 5.46 0 0 1-.166-.248c-.716-1.129-3.072-5.151-3.31-5.507-.118-.175-1.14-1.825-2.192-3.517-1.046-1.686-2.125-3.403-2.392-3.759-.238-.309-.934-1.392-1.557-2.382-.542-.857-1.026-1.645-1.16-1.852-.016-.242-.113-.474-.217-.67a2.468 2.468 0 0 0-.185-.289c-.057-.062-.115-.144-.233-.19-.077-.027-.195-.057-.31-.099-.046-.02-.098-.04-.128-.056-.011-.006-.016-.011-.021-.011-.196-.386-2.568-5.28-2.691-5.594-.135-.321-2.785-8.365-3.321-10.139-.274-.871-.624-2.645-.908-4.187-.222-1.191-.397-2.243-.469-2.666.098-.041.2-.109.299-.201a.361.361 0 0 0 .108-.253v-.005c-.01-.222-.154-.361-.258-.469a1.652 1.652 0 0 0-.336-.263l-.01-.005a.308.308 0 0 1-.082-.093.494.494 0 0 1-.047-.103c.073-.036.269-.109.459-.155.274-.077.578-.149.769-.201.309-.077.63-.3.634-.696v-.01a.882.882 0 0 0-.062-.32c-.124-.33-.432-.48-.69-.588-.269-.103-.547-.16-.651-.186-.133-.036-.335-.072-.52-.118a1.77 1.77 0 0 1-.247-.073.375.375 0 0 1-.083-.031 1.742 1.742 0 0 1-.103-.361c-.078-.319-.16-.747-.227-1.092a12.467 12.467 0 0 0-.073-.439c-.01-.056-.015-.098-.025-.129v-.041s-.006 0-.006-.005v-.016l-.005-.015-.005-.005c-.092-.289-.237-1.243-.377-2.47a167.08 167.08 0 0 1-.426-4.239c-.27-2.882-.487-5.605-.49-5.745v-.01c-.016-.345-.274-6.136-.315-6.678-.041-.526-.336-9.648-.356-9.973a2.316 2.316 0 0 1-.011-.268c0-.835.053-3.125.072-3.62v-.093a7.278 7.278 0 0 0-.226-1.609l-.006-.01c-.02-.041-.036-.067-.045-.087a.4.4 0 0 1 .056-.14.725.725 0 0 0 .102-.356v-.015a.56.56 0 0 0-.102-.325.659.659 0 0 0-.238-.273c-.041-.031-.077-.052-.102-.068-.016-.005-.027-.009-.031-.009-.006 0-.011-.006-.011-.006l-.01-.005h-.005l-.016-.005-.01-.005c-.01 0-.758-.181-1.821-.181-.304 0-.634.01-.979.052-.546.062-.892.185-1.109.345-.226.17-.309.387-.309.557v.016c0 .051.005.097.015.133a1.672 1.672 0 0 0-.103.573c.026 1.284 1.517 1.949 1.81 2.202.011.01.021.02.031.041.056.072.134.248.201.465.294.912.567 2.743.691 4.414.088 1.113.438 7.822.784 14.242.165 3.213.325 6.353.449 8.694.061 1.166.113 2.136.144 2.811.021.34.032.603.041.784.006.087.01.159.016.206v.066c.088 1.728.34 3.033.572 3.956.119.449.233.81.309 1.073a4.1 4.1 0 0 1 .13.453v.021c.004.382.159 3.357.17 3.579v.031c1.299 6.797 3.424 13.082 5.786 18.6.02.114.031.232.031.346 0 .185-.037.345-.109.433-.078.092-.18.159-.444.17-1.097 0-9.183-.773-12.902-.773-.747 0-1.315.03-1.66.108l-.041.015c-.041.005-.073.031-.082.067l-.026.036c-.011.031-.227.428-.486.836a6.446 6.446 0 0 1-.397.588c-.056.077-.118.144-.16.19-.025.026-.046.041-.056.052-.005 0-.005.005-.005.005a.33.33 0 0 0-.242.314s-.005.011 0 .026c.026.274.252.454.551.614.325.159.784.283 1.377.283.098 0 .206 0 .315-.01.624-.046 3.218-.108 6.137-.108 2.134 0 4.455.036 6.3.134.918.052 1.729.113 2.321.201.299.041.546.093.732.139.088.026.16.052.217.072.021.011.041.026.056.031l.016.011c.242.242.412.453.537.624l.319.752a.138.138 0 0 0 .119.078c5.213 10.53 10.628 17.125 10.633 17.141l.01.01c.191.165.407.155.65.16.325 0 .748-.031 1.248-.031.078 0 .16 0 .248.005H445.083c1.025.005 1.47-.407 1.635-.629a.327.327 0 0 0 .066-.217c-.01-.283-.185-.618-.371-.969m-25.758-92.645c.114.17.285.268.459.273l.006-.129v.129a.45.45 0 0 0 .262-.082h.012l.003-.005c.213-.181.233-.449.289-.717.042-.289.057-.588.057-.779 0-.294-.025-1.614-.025-2.274v-.036c0-.144 0-.263.005-.299.015-.273.051-.804.057-.897h.004V294.363a.693.693 0 0 0-.185-.453c-.102-.093-.202-.108-.232-.114H421.315c-.304.037-.427.258-.525.331-.238.221-.305.592-.397.7-.128.186-.175.3-.191.49v.104c0 .453.113 2.356.211 3.078.047.315.123.552.242.717m-2.537 1.537zm0 0v-.006zm-.051 3.145.067-.119-.067.119c.67.335 2 .289 3.135.361.552.031.67.15.696.202.046.051.037.252.109.494.01.042.025.104.025.171v.02c0 .134-.036.32-.078.464-.019.078-.04.145-.06.191-.006.02-.016.036-.022.047-.025 0-.076.01-.144.005h-.015c-.093 0-.206-.005-.351-.005-.562.01-1.408.226-2.078.459-.525.175-.795.433-.799.753 0 .092.026.17.057.232l.004.015a.394.394 0 0 0 .227.165c.083.026.16.026.233.031.299 0 .696-.088 1.025-.171.058-.02.171-.031.305-.031h.011c.562 0 1.479.181 1.954.336.288.098.531.139.737.144h.01c.273 0 .49-.088.65-.227.191-.165.186-.392.191-.582 0-.201-.026-.433-.052-.619-.026-.17-.051-.325-.051-.346v-.01c.016-.061.077-.283.139-.464.036-.113.078-.222.097-.299.022-.042.027-.078.038-.098.005-.01.005-.021.005-.021.004-.005.004-.01.009-.01.109-.315.274-.496.407-.603a1.16 1.16 0 0 1 .166-.109c.02-.01.036-.01.042-.02h.015c.005 0 .005 0 .005-.005l.02-.011h.01c1.042-.51 1.228-1.046 1.223-1.305v-.067a.477.477 0 0 0-.289-.401c-.186-.099-.434-.15-.639-.181-.201-.026-.387-.042-.408-.046-.107-.016-.531-.104-.747-.228a3.87 3.87 0 0 0-.655-.216c-.109-.031-.206-.052-.284-.073a.643.643 0 0 1-.087-.015c-.005 0-.016-.005-.021-.005h-.016a1.3 1.3 0 0 0-.284-.026c-.588.006-1.252.263-1.654.382-.428.129-1.578.361-1.718.392-1.036.062-1.278.232-1.341.273l-.02.021-.026.031-.01.02c-.047.098-.17.206-.181.424v.009c0 .124.058.238.146.32.086.083.195.15.339.232m1.088-1.841h.005c.315 0 .609-.098.692-.118.334-.088.51-.227.721-.217h.01c.181-.005.732-.056 1.264-.108a71.8 71.8 0 0 0 .685-.072c.099-.011.176-.016.228-.026.026 0 .046-.005.061-.005h.016v-.005H422.873l.011-.006c.576-.154.84-.433.84-.753v-.005a.838.838 0 0 0-.047-.252.396.396 0 0 0-.031-.083c0-.01-.004-.02-.01-.02V300.366c-.088-.248-.304-.366-.572-.505a3.527 3.527 0 0 0-1.057-.315 6.621 6.621 0 0 0-.949-.057c-.248 0-.475.011-.634.021-.077 0-.145.005-.191.01-.021.005-.037.005-.047.005h-.021c-.871.078-1.387.346-1.68.624-.15.139-.238.273-.289.377a.587.587 0 0 0-.056.139c-.011.031-.022.042-.022.072v.005-.005.016l-.004.01V300.82c0 .443.113.768.329.98.212.201.486.257.712.257M415.763 270.024a2.17 2.17 0 0 1-4.338 0c0-1.201.974-2.171 2.172-2.171 1.19 0 2.166.97 2.166 2.171M503.755 356.229a2.17 2.17 0 0 1-2.17 2.165 2.165 2.165 0 0 1-2.166-2.165 2.17 2.17 0 0 1 2.166-2.172c1.196 0 2.17.975 2.17 2.172M345.054 353.805c0 1.191-.97 2.16-2.166 2.16a2.165 2.165 0 1 1 2.166-2.16" style="fill:#fff;stroke:none;stroke-width:.345751" transform="matrix(1.02032 0 0 1.02032 -334.62 -260.906)"/></g></g></svg>