<svg xmlns="http://www.w3.org/2000/svg" xml:space="preserve" width="1000px" height="1039.508px" x="0px" y="0px" viewBox="0 0 1000 1039.508"><linearGradient id="a" x1="295.0718" x2="131.4162" y1="-781.0854" y2="-617.4299" gradientTransform="translate(-150.035 1015.074) scale(.9277)" gradientUnits="userSpaceOnUse"><stop offset="0" style="stop-color:#fcb811"/><stop offset="1" style="stop-color:#c3be2f"/></linearGradient><path fill="url(#a)" d="m108.538 276.9-37.135-41.1C25.818 313.618 0 403.928 0 495.567h25.557c.182-85.824 29.989-163.877 82.981-218.667z"/><linearGradient id="b" x1="133.5708" x2="273.8679" y1="-490.8623" y2="-350.5627" gradientTransform="translate(-150.035 1015.074) scale(.9277)" gradientUnits="userSpaceOnUse"><stop offset="0" style="stop-color:#c3be2f"/><stop offset="1" style="stop-color:#80c241"/></linearGradient><path fill="url(#b)" d="M101.888 679.262C55.364 635.189 25.557 575.627 25.557 496.01v-.443H0c0 93.23 16.691 180.044 49.523 255.593l52.365-71.898z"/><linearGradient id="c" x1="1128.6563" x2="1247.998" y1="-595.2153" y2="-475.8736" gradientTransform="translate(-150.035 1015.074) scale(.9277)" gradientUnits="userSpaceOnUse"><stop offset="0" style="stop-color:#6ccef5"/><stop offset="1" style="stop-color:#00b9c5"/></linearGradient><path fill="url(#c)" d="m916.939 429.458-47.515 49.079c65.979.965 106.296 51.791 104.913 116.805H1000c0-64.126-30.042-122.281-83.061-165.884z"/><linearGradient id="d" x1="1265.1807" x2="1144.6942" y1="-399.3511" y2="-278.8667" gradientTransform="translate(-150.035 1015.074) scale(.9277)" gradientUnits="userSpaceOnUse"><stop offset="0" style="stop-color:#00b9c5"/><stop offset="1" style="stop-color:#00a89b"/></linearGradient><path fill="url(#d)" d="M1000 595.342h-25.662c-1.225 53.278-29.703 98.107-93.02 131.409l66.837 91.951c32.521-60.11 51.845-133.937 51.845-223.36z"/><linearGradient id="e" x1="371.0024" x2="1103.9858" y1="-527.0205" y2="-527.0205" gradientTransform="translate(-150.035 1015.074) scale(.9277)" gradientUnits="userSpaceOnUse"><stop offset="0" style="stop-color:#0071bb"/><stop offset="1" style="stop-color:#6ccef5"/></linearGradient><path fill="url(#e)" d="M135.243 420.8c-1.747 9.936-2.712 20.081-2.712 30.642 0 152.949 113.885 250.587 257.732 250.587 273.588 0 354.77-223.596 477.311-223.596.601 0 1.175.104 1.852.104l47.515-49.079c-59.04-48.636-146.664-79.173-253.089-79.173-216.555 0-331.899 180.827-430.189 180.827-42.846 0-75.496-46.941-75.496-92.474 0-4.798.182-9.388.704-13.874l-23.628-3.964z"/><linearGradient id="f" x1="245.7632" x2="1246.73" y1="-923.7905" y2="-923.7905" gradientTransform="translate(-150.035 1015.074) scale(.9277)" gradientUnits="userSpaceOnUse"><stop offset="0" style="stop-color:#fcb811"/><stop offset="0.598" style="stop-color:#f5831b"/><stop offset="1" style="stop-color:#f16421"/></linearGradient><path fill="url(#f)" d="M304.831 196.5c158.165 0 267.85 119.647 408.83 119.647 169.223 0 262.766-82.537 286.34-243.44l-25.662-4.33c-7.067 42.69-34.971 93.986-84.701 93.986-47.098 0-96.935-41.307-169.613-81.233C647.395 39.9 564.127 0 460.074 0 292.86 0 151.645 98.655 71.403 235.8l37.135 41.1c48.062-49.784 115.084-80.4 196.293-80.4z"/><linearGradient id="g" x1="278.7671" x2="1118.9094" y1="-167.8228" y2="-167.8228" gradientTransform="translate(-150.035 1015.074) scale(.9277)" gradientUnits="userSpaceOnUse"><stop offset="0" style="stop-color:#80c241"/><stop offset="1" style="stop-color:#00a89b"/></linearGradient><path fill="url(#g)" d="M470.114 791.738c-122.489 0-277.344-26.626-368.227-112.477L49.523 751.16c75.393 173.604 236.374 288.348 477.547 288.348 159.312 0 335.704-63.213 421.085-220.806l-66.837-91.951c-78.601 41.36-210.793 64.987-411.204 64.987z"/></svg>